<svg xmlns="http://www.w3.org/2000/svg" width="1920" height="1080"><path d="M560,1313L-115,1318L930,1330Z" fill="#adbdde" stroke="#adbdde" stroke-width="1.51"/><path d="M340,-265L395,-253L999,-247Z" fill="#9db6e0" stroke="#9db6e0" stroke-width="1.51"/><path d="M340,-265L999,-247L1618,-246Z" fill="#dbb8b4" stroke="#dbb8b4" stroke-width="1.51"/><path d="M340,-265L1618,-246L1825,-248Z" fill="#fcba96" stroke="#fcba96" stroke-width="1.51"/><path d="M1962,934L1964,1121L2038,1137Z" fill="#ffcda7" stroke="#ffcda7" stroke-width="1.51"/><path d="M1938,563L1954,642L2088,501Z" fill="#e1af9d" stroke="#e1af9d" stroke-width="1.51"/><path d="M1962,934L2038,1137L2111,940Z" fill="#ffcaa1" stroke="#ffcaa1" stroke-width="1.51"/><path d="M1789,1304L1493,1337L2112,1301Z" fill="#ffdbbf" stroke="#ffdbbf" stroke-width="1.51"/><path d="M1967,1236L1789,1304L2112,1301Z" fill="#ffe4cf" stroke="#ffe4cf" stroke-width="1.51"/><path d="M2038,1137L1967,1236L2112,1301Z" fill="#ffe4cf" stroke="#ffe4cf" stroke-width="1.51"/><path d="M2111,940L2038,1137L2112,1301Z" fill="#ffddc1" stroke="#ffddc1" stroke-width="1.51"/><path d="M2088,227L1892,406L2120,392Z" fill="#b5b0c6" stroke="#b5b0c6" stroke-width="1.51"/><path d="M1892,63L2088,227L2127,143Z" fill="#b7bed8" stroke="#b7bed8" stroke-width="1.51"/><path d="M2036,-12L1892,63L2127,143Z" fill="#c5c7d9" stroke="#c5c7d9" stroke-width="1.51"/><path d="M2080,-156L2036,-12L2127,143Z" fill="#d0d5e6" stroke="#d0d5e6" stroke-width="1.51"/><path d="M2088,227L2120,392L2127,143Z" fill="#a2b6dd" stroke="#a2b6dd" stroke-width="1.51"/><path d="M2088,501L1954,642L2127,704Z" fill="#eab49d" stroke="#eab49d" stroke-width="1.51"/><path d="M1954,642L2042,809L2127,704Z" fill="#fab48b" stroke="#fab48b" stroke-width="1.51"/><path d="M2042,809L2111,940L2127,704Z" fill="#ffb983" stroke="#ffb983" stroke-width="1.51"/><path d="M2111,940L2112,1301L2127,704Z" fill="#ffcea8" stroke="#ffcea8" stroke-width="1.51"/><path d="M2120,392L2088,501L2127,704Z" fill="#dcb8b3" stroke="#dcb8b3" stroke-width="1.51"/><path d="M2127,143L2120,392L2127,704Z" fill="#c4b8c8" stroke="#c4b8c8" stroke-width="1.51"/><path d="M1893,225L1892,406L2088,227Z" fill="#aaaac4" stroke="#aaaac4" stroke-width="1.51"/><path d="M2042,809L1962,934L2111,940Z" fill="#ffbe8b" stroke="#ffbe8b" stroke-width="1.51"/><path d="M1892,406L2088,501L2120,392Z" fill="#c8b1b8" stroke="#c8b1b8" stroke-width="1.51"/><path d="M1892,63L1893,225L2088,227Z" fill="#b4b5cc" stroke="#b4b5cc" stroke-width="1.51"/><path d="M1954,642L1967,812L2042,809Z" fill="#feb07d" stroke="#feb07d" stroke-width="1.51"/><path d="M1946,-43L2036,-12L2080,-156Z" fill="#dbd8e0" stroke="#dbd8e0" stroke-width="1.51"/><path d="M1986,-198L1946,-43L2080,-156Z" fill="#e6dfe1" stroke="#e6dfe1" stroke-width="1.51"/><path d="M1892,406L1938,563L2088,501Z" fill="#d3ada6" stroke="#d3ada6" stroke-width="1.51"/><path d="M395,-253L611,-220L999,-247Z" fill="#abb4d6" stroke="#abb4d6" stroke-width="1.51"/><path d="M1967,812L1962,934L2042,809Z" fill="#ffb57b" stroke="#ffb57b" stroke-width="1.51"/><path d="M999,-247L1314,-180L1618,-246Z" fill="#fdb68f" stroke="#fdb68f" stroke-width="1.51"/><path d="M1946,-43L1892,63L2036,-12Z" fill="#d0cad4" stroke="#d0cad4" stroke-width="1.51"/><path d="M1964,1121L1967,1236L2038,1137Z" fill="#ffd9bb" stroke="#ffd9bb" stroke-width="1.51"/><path d="M1824,360L1892,406L1893,225Z" fill="#b5a3b1" stroke="#b5a3b1" stroke-width="1.51"/><path d="M1825,-248L1756,-88L1946,-43Z" fill="#e7d1c9" stroke="#e7d1c9" stroke-width="1.51"/><path d="M1962,934L1806,995L1964,1121Z" fill="#ffc291" stroke="#ffc291" stroke-width="1.51"/><path d="M1954,642L1738,726L1967,812Z" fill="#f8a874" stroke="#f8a874" stroke-width="1.51"/><path d="M1964,1121L1816,1148L1967,1236Z" fill="#ffd4b2" stroke="#ffd4b2" stroke-width="1.51"/><path d="M1825,-248L1946,-43L1986,-198Z" fill="#ecdbd6" stroke="#ecdbd6" stroke-width="1.51"/><path d="M1729,871L1806,995L1962,934Z" fill="#ffb275" stroke="#ffb275" stroke-width="1.51"/><path d="M1806,995L1816,1148L1964,1121Z" fill="#ffc699" stroke="#ffc699" stroke-width="1.51"/><path d="M1729,871L1962,934L1967,812Z" fill="#ffaf71" stroke="#ffaf71" stroke-width="1.51"/><path d="M1738,726L1729,871L1967,812Z" fill="#ffa35c" stroke="#ffa35c" stroke-width="1.51"/><path d="M1816,1148L1789,1304L1967,1236Z" fill="#ffd6b6" stroke="#ffd6b6" stroke-width="1.51"/><path d="M1938,563L1739,567L1954,642Z" fill="#e3a689" stroke="#e3a689" stroke-width="1.51"/><path d="M1739,567L1738,726L1954,642Z" fill="#eba177" stroke="#eba177" stroke-width="1.51"/><path d="M1892,63L1798,192L1893,225Z" fill="#b9afbe" stroke="#b9afbe" stroke-width="1.51"/><path d="M1892,406L1739,567L1938,563Z" fill="#d7a493" stroke="#d7a493" stroke-width="1.51"/><path d="M1756,-88L1892,63L1946,-43Z" fill="#d6c5c8" stroke="#d6c5c8" stroke-width="1.51"/><path d="M1800,84L1798,192L1892,63Z" fill="#c1b2bc" stroke="#c1b2bc" stroke-width="1.51"/><path d="M1307,1284L930,1330L1493,1337Z" fill="#fdb88f" stroke="#fdb88f" stroke-width="1.51"/><path d="M1756,-88L1800,84L1892,63Z" fill="#d1bcbf" stroke="#d1bcbf" stroke-width="1.51"/><path d="M1824,360L1739,567L1892,406Z" fill="#cba198" stroke="#cba198" stroke-width="1.51"/><path d="M1798,192L1824,360L1893,225Z" fill="#a9a1b7" stroke="#a9a1b7" stroke-width="1.51"/><path d="M1314,-180L1511,-198L1618,-246Z" fill="#fdbe99" stroke="#fdbe99" stroke-width="1.51"/><path d="M1653,1246L1493,1337L1789,1304Z" fill="#ffcda5" stroke="#ffcda5" stroke-width="1.51"/><path d="M1756,-88L1635,-28L1800,84Z" fill="#d7b9b4" stroke="#d7b9b4" stroke-width="1.51"/><path d="M1626,952L1580,1165L1806,995Z" fill="#ffb174" stroke="#ffb174" stroke-width="1.51"/><path d="M1806,995L1580,1165L1816,1148Z" fill="#ffbd8a" stroke="#ffbd8a" stroke-width="1.51"/><path d="M1653,1246L1789,1304L1816,1148Z" fill="#ffcea8" stroke="#ffcea8" stroke-width="1.51"/><path d="M1676,235L1605,351L1824,360Z" fill="#b6969c" stroke="#b6969c" stroke-width="1.51"/><path d="M1605,351L1665,511L1824,360Z" fill="#c6968d" stroke="#c6968d" stroke-width="1.51"/><path d="M1665,511L1739,567L1824,360Z" fill="#d29b88" stroke="#d29b88" stroke-width="1.51"/><path d="M1798,192L1676,235L1824,360Z" fill="#ab9bac" stroke="#ab9bac" stroke-width="1.51"/><path d="M1618,-246L1756,-88L1825,-248Z" fill="#f4d0bd" stroke="#f4d0bd" stroke-width="1.51"/><path d="M1580,1165L1653,1246L1816,1148Z" fill="#ffc394" stroke="#ffc394" stroke-width="1.51"/><path d="M1676,235L1798,192L1800,84Z" fill="#baa5b0" stroke="#baa5b0" stroke-width="1.51"/><path d="M1584,96L1676,235L1800,84Z" fill="#c1a4a7" stroke="#c1a4a7" stroke-width="1.51"/><path d="M1729,871L1626,952L1806,995Z" fill="#ffaa67" stroke="#ffaa67" stroke-width="1.51"/><path d="M1635,-28L1584,96L1800,84Z" fill="#cfada9" stroke="#cfada9" stroke-width="1.51"/><path d="M1650,713L1738,726L1739,567Z" fill="#ee9965" stroke="#ee9965" stroke-width="1.51"/><path d="M1627,796L1729,871L1738,726Z" fill="#ff994d" stroke="#ff994d" stroke-width="1.51"/><path d="M1618,-246L1635,-28L1756,-88Z" fill="#eac3b0" stroke="#eac3b0" stroke-width="1.51"/><path d="M1650,713L1627,796L1738,726Z" fill="#f89753" stroke="#f89753" stroke-width="1.51"/><path d="M1665,511L1650,713L1739,567Z" fill="#e4976e" stroke="#e4976e" stroke-width="1.51"/><path d="M1627,796L1626,952L1729,871Z" fill="#ff9d50" stroke="#ff9d50" stroke-width="1.51"/><path d="M163,1278L-115,1318L560,1313Z" fill="#ccd0e3" stroke="#ccd0e3" stroke-width="1.51"/><path d="M1526,980L1580,1165L1626,952Z" fill="#ffa966" stroke="#ffa966" stroke-width="1.51"/><path d="M1618,-246L1511,-198L1635,-28Z" fill="#f2c1a6" stroke="#f2c1a6" stroke-width="1.51"/><path d="M1605,351L1516,496L1665,511Z" fill="#cf8f79" stroke="#cf8f79" stroke-width="1.51"/><path d="M1530,714L1650,713L1665,511Z" fill="#ea915c" stroke="#ea915c" stroke-width="1.51"/><path d="M1516,496L1530,714L1665,511Z" fill="#e18e62" stroke="#e18e62" stroke-width="1.51"/><path d="M1530,188L1605,351L1676,235Z" fill="#b18f97" stroke="#b18f97" stroke-width="1.51"/><path d="M1584,96L1530,188L1676,235Z" fill="#be9999" stroke="#be9999" stroke-width="1.51"/><path d="M1172,1266L930,1330L1307,1284Z" fill="#f1b596" stroke="#f1b596" stroke-width="1.51"/><path d="M1483,884L1626,952L1627,796Z" fill="#ff9745" stroke="#ff9745" stroke-width="1.51"/><path d="M1526,980L1474,1114L1580,1165Z" fill="#ffac6a" stroke="#ffac6a" stroke-width="1.51"/><path d="M1511,-198L1431,-99L1635,-28Z" fill="#ecb59c" stroke="#ecb59c" stroke-width="1.51"/><path d="M1530,714L1627,796L1650,713Z" fill="#f79149" stroke="#f79149" stroke-width="1.51"/><path d="M1580,1165L1493,1337L1653,1246Z" fill="#ffc292" stroke="#ffc292" stroke-width="1.51"/><path d="M999,-247L1199,-174L1314,-180Z" fill="#eab39e" stroke="#eab39e" stroke-width="1.51"/><path d="M1483,884L1526,980L1626,952Z" fill="#ff9c4e" stroke="#ff9c4e" stroke-width="1.51"/><path d="M1431,-99L1584,96L1635,-28Z" fill="#dcab9b" stroke="#dcab9b" stroke-width="1.51"/><path d="M1454,391L1516,496L1605,351Z" fill="#ca8975" stroke="#ca8975" stroke-width="1.51"/><path d="M1530,714L1483,884L1627,796Z" fill="#fd8d35" stroke="#fd8d35" stroke-width="1.51"/><path d="M1431,-99L1465,132L1584,96Z" fill="#d5a091" stroke="#d5a091" stroke-width="1.51"/><path d="M1530,188L1454,391L1605,351Z" fill="#ba8886" stroke="#ba8886" stroke-width="1.51"/><path d="M1516,496L1388,594L1530,714Z" fill="#e58651" stroke="#e58651" stroke-width="1.51"/><path d="M1474,1114L1374,1183L1493,1337Z" fill="#ffb478" stroke="#ffb478" stroke-width="1.51"/><path d="M1474,1114L1493,1337L1580,1165Z" fill="#ffb880" stroke="#ffb880" stroke-width="1.51"/><path d="M1465,132L1530,188L1584,96Z" fill="#c69891" stroke="#c69891" stroke-width="1.51"/><path d="M611,-220L720,-209L999,-247Z" fill="#bab3c9" stroke="#bab3c9" stroke-width="1.51"/><path d="M1431,-99L1317,75L1465,132Z" fill="#d99a85" stroke="#d99a85" stroke-width="1.51"/><path d="M1362,669L1287,789L1483,884Z" fill="#fb7e19" stroke="#fb7e19" stroke-width="1.51"/><path d="M1357,978L1474,1114L1526,980Z" fill="#ff9e52" stroke="#ff9e52" stroke-width="1.51"/><path d="M1362,669L1483,884L1530,714Z" fill="#f88530" stroke="#f88530" stroke-width="1.51"/><path d="M1388,594L1362,669L1530,714Z" fill="#ec823f" stroke="#ec823f" stroke-width="1.51"/><path d="M1465,132L1363,203L1530,188Z" fill="#c38d86" stroke="#c38d86" stroke-width="1.51"/><path d="M1363,203L1454,391L1530,188Z" fill="#b68382" stroke="#b68382" stroke-width="1.51"/><path d="M1483,884L1357,978L1526,980Z" fill="#ff9542" stroke="#ff9542" stroke-width="1.51"/><path d="M1454,391L1388,594L1516,496Z" fill="#d7835f" stroke="#d7835f" stroke-width="1.51"/><path d="M1374,1183L1307,1284L1493,1337Z" fill="#ffb57c" stroke="#ffb57c" stroke-width="1.51"/><path d="M1314,-180L1431,-99L1511,-198Z" fill="#f7b38f" stroke="#f7b38f" stroke-width="1.51"/><path d="M1307,427L1388,594L1454,391Z" fill="#d57e5a" stroke="#d57e5a" stroke-width="1.51"/><path d="M1310,-77L1317,75L1431,-99Z" fill="#e49f83" stroke="#e49f83" stroke-width="1.51"/><path d="M1287,789L1357,978L1483,884Z" fill="#ff8724" stroke="#ff8724" stroke-width="1.51"/><path d="M1363,203L1307,427L1454,391Z" fill="#c37d6d" stroke="#c37d6d" stroke-width="1.51"/><path d="M1357,978L1374,1183L1474,1114Z" fill="#ffa259" stroke="#ffa259" stroke-width="1.51"/><path d="M1317,75L1363,203L1465,132Z" fill="#ca8c7e" stroke="#ca8c7e" stroke-width="1.51"/><path d="M1314,-180L1310,-77L1431,-99Z" fill="#f1a986" stroke="#f1a986" stroke-width="1.51"/><path d="M1131,274L1307,427L1363,203Z" fill="#b47b7a" stroke="#b47b7a" stroke-width="1.51"/><path d="M1357,978L1211,1010L1374,1183Z" fill="#fd9a52" stroke="#fd9a52" stroke-width="1.51"/><path d="M1211,1010L1178,1092L1374,1183Z" fill="#f89f61" stroke="#f89f61" stroke-width="1.51"/><path d="M1169,516L1362,669L1388,594Z" fill="#e07d48" stroke="#e07d48" stroke-width="1.51"/><path d="M1307,427L1169,516L1388,594Z" fill="#d47c57" stroke="#d47c57" stroke-width="1.51"/><path d="M1131,274L1147,379L1307,427Z" fill="#b57c79" stroke="#b57c79" stroke-width="1.51"/><path d="M1287,789L1211,1010L1357,978Z" fill="#f98b38" stroke="#f98b38" stroke-width="1.51"/><path d="M1169,516L1204,716L1362,669Z" fill="#e07d49" stroke="#e07d49" stroke-width="1.51"/><path d="M1178,1092L1307,1284L1374,1183Z" fill="#fda96f" stroke="#fda96f" stroke-width="1.51"/><path d="M421,1284L163,1278L560,1313Z" fill="#b7c0db" stroke="#b7c0db" stroke-width="1.51"/><path d="M1186,802L1211,1010L1287,789Z" fill="#f48333" stroke="#f48333" stroke-width="1.51"/><path d="M1178,1092L1172,1266L1307,1284Z" fill="#f7ac7d" stroke="#f7ac7d" stroke-width="1.51"/><path d="M1310,-77L1224,-53L1317,75Z" fill="#db9d8a" stroke="#db9d8a" stroke-width="1.51"/><path d="M1204,716L1287,789L1362,669Z" fill="#ef7d32" stroke="#ef7d32" stroke-width="1.51"/><path d="M1317,75L1174,71L1363,203Z" fill="#c68d84" stroke="#c68d84" stroke-width="1.51"/><path d="M1174,71L1131,274L1363,203Z" fill="#b58588" stroke="#b58588" stroke-width="1.51"/><path d="M1199,-174L1224,-53L1310,-77Z" fill="#e2a792" stroke="#e2a792" stroke-width="1.51"/><path d="M1199,-174L1310,-77L1314,-180Z" fill="#ecad90" stroke="#ecad90" stroke-width="1.51"/><path d="M1224,-53L1174,71L1317,75Z" fill="#ce978c" stroke="#ce978c" stroke-width="1.51"/><path d="M1147,379L1169,516L1307,427Z" fill="#c27c6c" stroke="#c27c6c" stroke-width="1.51"/><path d="M1204,716L1186,802L1287,789Z" fill="#ef7d32" stroke="#ef7d32" stroke-width="1.51"/><path d="M1030,1249L930,1330L1172,1266Z" fill="#e6b39e" stroke="#e6b39e" stroke-width="1.51"/><path d="M1072,187L1131,274L1174,71Z" fill="#ab8592" stroke="#ab8592" stroke-width="1.51"/><path d="M1169,516L1071,654L1204,716Z" fill="#d77d55" stroke="#d77d55" stroke-width="1.51"/><path d="M1186,802L1045,819L1211,1010Z" fill="#ee8441" stroke="#ee8441" stroke-width="1.51"/><path d="M1045,819L1003,1026L1211,1010Z" fill="#e88d58" stroke="#e88d58" stroke-width="1.51"/><path d="M1199,-174L1058,-94L1224,-53Z" fill="#daa79b" stroke="#daa79b" stroke-width="1.51"/><path d="M1058,-94L1174,71L1224,-53Z" fill="#cd9d98" stroke="#cd9d98" stroke-width="1.51"/><path d="M1030,1249L1172,1266L1178,1092Z" fill="#eeaa85" stroke="#eeaa85" stroke-width="1.51"/><path d="M1003,1026L1178,1092L1211,1010Z" fill="#ec9765" stroke="#ec9765" stroke-width="1.51"/><path d="M991,1160L1030,1249L1178,1092Z" fill="#e7a685" stroke="#e7a685" stroke-width="1.51"/><path d="M1071,654L1045,819L1186,802Z" fill="#e37d44" stroke="#e37d44" stroke-width="1.51"/><path d="M1071,654L1186,802L1204,716Z" fill="#e47d44" stroke="#e47d44" stroke-width="1.51"/><path d="M999,-247L1058,-94L1199,-174Z" fill="#dcafa6" stroke="#dcafa6" stroke-width="1.51"/><path d="M737,1283L560,1313L930,1330Z" fill="#bfb4c4" stroke="#bfb4c4" stroke-width="1.51"/><path d="M1147,379L1021,401L1169,516Z" fill="#b87c77" stroke="#b87c77" stroke-width="1.51"/><path d="M998,526L1071,654L1169,516Z" fill="#c87c66" stroke="#c87c66" stroke-width="1.51"/><path d="M1058,-94L979,102L1174,71Z" fill="#bb969e" stroke="#bb969e" stroke-width="1.51"/><path d="M1003,1026L991,1160L1178,1092Z" fill="#e59d77" stroke="#e59d77" stroke-width="1.51"/><path d="M1021,401L998,526L1169,516Z" fill="#ba7c75" stroke="#ba7c75" stroke-width="1.51"/><path d="M979,102L1072,187L1174,71Z" fill="#ad8b9a" stroke="#ad8b9a" stroke-width="1.51"/><path d="M1131,274L1021,401L1147,379Z" fill="#a97b84" stroke="#a97b84" stroke-width="1.51"/><path d="M921,-7L979,102L1058,-94Z" fill="#b49aa9" stroke="#b49aa9" stroke-width="1.51"/><path d="M1072,187L1021,401L1131,274Z" fill="#9b7b90" stroke="#9b7b90" stroke-width="1.51"/><path d="M844,675L918,847L1045,819Z" fill="#d77c54" stroke="#d77c54" stroke-width="1.51"/><path d="M918,847L1003,1026L1045,819Z" fill="#df8658" stroke="#df8658" stroke-width="1.51"/><path d="M844,675L1045,819L1071,654Z" fill="#d47d58" stroke="#d47d58" stroke-width="1.51"/><path d="M998,526L844,675L1071,654Z" fill="#c47c69" stroke="#c47c69" stroke-width="1.51"/><path d="M897,288L1021,401L1072,187Z" fill="#917b97" stroke="#917b97" stroke-width="1.51"/><path d="M979,102L897,288L1072,187Z" fill="#9583a0" stroke="#9583a0" stroke-width="1.51"/><path d="M999,-247L842,-155L1058,-94Z" fill="#cbadb2" stroke="#cbadb2" stroke-width="1.51"/><path d="M842,-155L921,-7L1058,-94Z" fill="#bba3b1" stroke="#bba3b1" stroke-width="1.51"/><path d="M867,515L844,675L998,526Z" fill="#b67c78" stroke="#b67c78" stroke-width="1.51"/><path d="M918,847L845,979L1003,1026Z" fill="#d88c6a" stroke="#d88c6a" stroke-width="1.51"/><path d="M897,288L857,347L1021,401Z" fill="#927b96" stroke="#927b96" stroke-width="1.51"/><path d="M867,515L998,526L1021,401Z" fill="#af7b7f" stroke="#af7b7f" stroke-width="1.51"/><path d="M991,1160L930,1330L1030,1249Z" fill="#dfaf9d" stroke="#dfaf9d" stroke-width="1.51"/><path d="M843,1095L991,1160L1003,1026Z" fill="#da9d83" stroke="#da9d83" stroke-width="1.51"/><path d="M857,347L867,515L1021,401Z" fill="#9f7b8c" stroke="#9f7b8c" stroke-width="1.51"/><path d="M843,1095L930,1330L991,1160Z" fill="#d7a89a" stroke="#d7a89a" stroke-width="1.51"/><path d="M720,-209L842,-155L999,-247Z" fill="#c2b1c0" stroke="#c2b1c0" stroke-width="1.51"/><path d="M845,979L843,1095L1003,1026Z" fill="#d5957d" stroke="#d5957d" stroke-width="1.51"/><path d="M845,48L897,288L979,102Z" fill="#9188aa" stroke="#9188aa" stroke-width="1.51"/><path d="M843,1095L737,1283L930,1330Z" fill="#ccadab" stroke="#ccadab" stroke-width="1.51"/><path d="M921,-7L845,48L979,102Z" fill="#a293ae" stroke="#a293ae" stroke-width="1.51"/><path d="M845,48L742,261L897,288Z" fill="#7b82af" stroke="#7b82af" stroke-width="1.51"/><path d="M842,-155L789,-83L921,-7Z" fill="#ada2ba" stroke="#ada2ba" stroke-width="1.51"/><path d="M844,675L680,838L918,847Z" fill="#cd7c60" stroke="#cd7c60" stroke-width="1.51"/><path d="M789,-83L845,48L921,-7Z" fill="#a39ab7" stroke="#a39ab7" stroke-width="1.51"/><path d="M680,838L845,979L918,847Z" fill="#cf8569" stroke="#cf8569" stroke-width="1.51"/><path d="M699,58L742,261L845,48Z" fill="#7d89ba" stroke="#7d89ba" stroke-width="1.51"/><path d="M768,344L750,486L857,347Z" fill="#887a9d" stroke="#887a9d" stroke-width="1.51"/><path d="M757,656L844,675L867,515Z" fill="#b57c79" stroke="#b57c79" stroke-width="1.51"/><path d="M857,347L750,486L867,515Z" fill="#997b92" stroke="#997b92" stroke-width="1.51"/><path d="M742,261L857,347L897,288Z" fill="#797aa6" stroke="#797aa6" stroke-width="1.51"/><path d="M684,1131L737,1283L843,1095Z" fill="#c2a4a7" stroke="#c2a4a7" stroke-width="1.51"/><path d="M757,656L680,838L844,675Z" fill="#bf7c70" stroke="#bf7c70" stroke-width="1.51"/><path d="M716,991L843,1095L845,979Z" fill="#cb9484" stroke="#cb9484" stroke-width="1.51"/><path d="M680,838L716,991L845,979Z" fill="#c78a79" stroke="#c78a79" stroke-width="1.51"/><path d="M742,261L768,344L857,347Z" fill="#767aa8" stroke="#767aa8" stroke-width="1.51"/><path d="M750,486L757,656L867,515Z" fill="#a77c85" stroke="#a77c85" stroke-width="1.51"/><path d="M789,-83L699,58L845,48Z" fill="#9397be" stroke="#9397be" stroke-width="1.51"/><path d="M716,991L684,1131L843,1095Z" fill="#c49994" stroke="#c49994" stroke-width="1.51"/><path d="M720,-209L789,-83L842,-155Z" fill="#aeaac5" stroke="#aeaac5" stroke-width="1.51"/><path d="M618,735L680,838L757,656Z" fill="#ba7c74" stroke="#ba7c74" stroke-width="1.51"/><path d="M750,486L637,527L757,656Z" fill="#9f7b8d" stroke="#9f7b8d" stroke-width="1.51"/><path d="M720,-209L596,-94L789,-83Z" fill="#9da7cd" stroke="#9da7cd" stroke-width="1.51"/><path d="M596,-94L699,58L789,-83Z" fill="#8c9cc9" stroke="#8c9cc9" stroke-width="1.51"/><path d="M699,58L573,116L742,261Z" fill="#6487c2" stroke="#6487c2" stroke-width="1.51"/><path d="M573,116L621,288L742,261Z" fill="#4c7fc1" stroke="#4c7fc1" stroke-width="1.51"/><path d="M543,363L637,527L750,486Z" fill="#817ba2" stroke="#817ba2" stroke-width="1.51"/><path d="M621,288L543,363L750,486Z" fill="#6a7aae" stroke="#6a7aae" stroke-width="1.51"/><path d="M621,288L750,486L768,344Z" fill="#777aa7" stroke="#777aa7" stroke-width="1.51"/><path d="M742,261L621,288L768,344Z" fill="#6079b3" stroke="#6079b3" stroke-width="1.51"/><path d="M633,1021L684,1131L716,991Z" fill="#bc9697" stroke="#bc9697" stroke-width="1.51"/><path d="M637,527L618,735L757,656Z" fill="#a87b85" stroke="#a87b85" stroke-width="1.51"/><path d="M544,1169L560,1313L684,1131Z" fill="#aba7bf" stroke="#aba7bf" stroke-width="1.51"/><path d="M611,-220L596,-94L720,-209Z" fill="#9aacd5" stroke="#9aacd5" stroke-width="1.51"/><path d="M684,1131L560,1313L737,1283Z" fill="#b4acc0" stroke="#b4acc0" stroke-width="1.51"/><path d="M680,838L633,1021L716,991Z" fill="#bf8b84" stroke="#bf8b84" stroke-width="1.51"/><path d="M571,799L633,1021L680,838Z" fill="#bc837d" stroke="#bc837d" stroke-width="1.51"/><path d="M596,-94L573,116L699,58Z" fill="#7094cd" stroke="#7094cd" stroke-width="1.51"/><path d="M618,735L571,799L680,838Z" fill="#bb7b73" stroke="#bb7b73" stroke-width="1.51"/><path d="M633,1021L544,1169L684,1131Z" fill="#b29ca8" stroke="#b29ca8" stroke-width="1.51"/><path d="M466,-93L414,53L573,116Z" fill="#6c9bd6" stroke="#6c9bd6" stroke-width="1.51"/><path d="M466,-93L573,116L596,-94Z" fill="#6e9bd7" stroke="#6e9bd7" stroke-width="1.51"/><path d="M573,116L485,289L621,288Z" fill="#207dc9" stroke="#207dc9" stroke-width="1.51"/><path d="M435,1124L544,1169L633,1021Z" fill="#ad9eb0" stroke="#ad9eb0" stroke-width="1.51"/><path d="M571,799L400,973L633,1021Z" fill="#b58b8d" stroke="#b58b8d" stroke-width="1.51"/><path d="M543,363L402,513L637,527Z" fill="#787daa" stroke="#787daa" stroke-width="1.51"/><path d="M412,723L618,735L637,527Z" fill="#9f7c8d" stroke="#9f7c8d" stroke-width="1.51"/><path d="M402,513L412,723L637,527Z" fill="#99819a" stroke="#99819a" stroke-width="1.51"/><path d="M454,794L400,973L571,799Z" fill="#bf8780" stroke="#bf8780" stroke-width="1.51"/><path d="M400,973L435,1124L633,1021Z" fill="#b59aa4" stroke="#b59aa4" stroke-width="1.51"/><path d="M466,-93L596,-94L611,-220Z" fill="#82a7dc" stroke="#82a7dc" stroke-width="1.51"/><path d="M454,794L571,799L618,735Z" fill="#b37d7c" stroke="#b37d7c" stroke-width="1.51"/><path d="M412,723L454,794L618,735Z" fill="#b58182" stroke="#b58182" stroke-width="1.51"/><path d="M485,289L543,363L621,288Z" fill="#3c7ac0" stroke="#3c7ac0" stroke-width="1.51"/><path d="M395,-253L466,-93L611,-220Z" fill="#96b3e1" stroke="#96b3e1" stroke-width="1.51"/><path d="M416,349L402,513L543,363Z" fill="#7182b6" stroke="#7182b6" stroke-width="1.51"/><path d="M544,1169L421,1284L560,1313Z" fill="#a9b1cf" stroke="#a9b1cf" stroke-width="1.51"/><path d="M414,53L485,289L573,116Z" fill="#4d8bd0" stroke="#4d8bd0" stroke-width="1.51"/><path d="M435,1124L421,1284L544,1169Z" fill="#b1adc3" stroke="#b1adc3" stroke-width="1.51"/><path d="M485,289L416,349L543,363Z" fill="#537fc0" stroke="#537fc0" stroke-width="1.51"/><path d="M402,513L311,652L412,723Z" fill="#ac8997" stroke="#ac8997" stroke-width="1.51"/><path d="M293,1240L163,1278L421,1284Z" fill="#c2c5d8" stroke="#c2c5d8" stroke-width="1.51"/><path d="M285,834L400,973L454,794Z" fill="#c89085" stroke="#c89085" stroke-width="1.51"/><path d="M334,-47L414,53L466,-93Z" fill="#82a7dc" stroke="#82a7dc" stroke-width="1.51"/><path d="M414,53L277,136L485,289Z" fill="#5c92d3" stroke="#5c92d3" stroke-width="1.51"/><path d="M269,295L416,349L485,289Z" fill="#5786c6" stroke="#5786c6" stroke-width="1.51"/><path d="M277,136L269,295L485,289Z" fill="#508dd1" stroke="#508dd1" stroke-width="1.51"/><path d="M293,1240L421,1284L435,1124Z" fill="#b9b8cb" stroke="#b9b8cb" stroke-width="1.51"/><path d="M395,-253L334,-47L466,-93Z" fill="#97b4e2" stroke="#97b4e2" stroke-width="1.51"/><path d="M340,-265L334,-47L395,-253Z" fill="#a7bfe6" stroke="#a7bfe6" stroke-width="1.51"/><path d="M272,418L402,513L416,349Z" fill="#818ab6" stroke="#818ab6" stroke-width="1.51"/><path d="M400,973L269,1125L435,1124Z" fill="#c0a8af" stroke="#c0a8af" stroke-width="1.51"/><path d="M412,723L285,834L454,794Z" fill="#c58980" stroke="#c58980" stroke-width="1.51"/><path d="M285,834L288,960L400,973Z" fill="#cc9b91" stroke="#cc9b91" stroke-width="1.51"/><path d="M281,561L311,652L402,513Z" fill="#a68da1" stroke="#a68da1" stroke-width="1.51"/><path d="M269,1125L293,1240L435,1124Z" fill="#c1b5c2" stroke="#c1b5c2" stroke-width="1.51"/><path d="M288,960L269,1125L400,973Z" fill="#c8a6a5" stroke="#c8a6a5" stroke-width="1.51"/><path d="M269,295L272,418L416,349Z" fill="#728cc2" stroke="#728cc2" stroke-width="1.51"/><path d="M311,652L285,834L412,723Z" fill="#c38d88" stroke="#c38d88" stroke-width="1.51"/><path d="M334,-47L277,136L414,53Z" fill="#7ca3db" stroke="#7ca3db" stroke-width="1.51"/><path d="M272,418L281,561L402,513Z" fill="#978dad" stroke="#978dad" stroke-width="1.51"/><path d="M191,799L285,834L311,652Z" fill="#cf9386" stroke="#cf9386" stroke-width="1.51"/><path d="M172,87L277,136L334,-47Z" fill="#84a8dc" stroke="#84a8dc" stroke-width="1.51"/><path d="M99,-189L125,-61L334,-47Z" fill="#acc2e8" stroke="#acc2e8" stroke-width="1.51"/><path d="M99,-189L334,-47L340,-265Z" fill="#afc4e8" stroke="#afc4e8" stroke-width="1.51"/><path d="M38,-231L99,-189L340,-265Z" fill="#c6d4ef" stroke="#c6d4ef" stroke-width="1.51"/><path d="M182,1095L269,1125L288,960Z" fill="#ceb1b0" stroke="#ceb1b0" stroke-width="1.51"/><path d="M125,-61L172,87L334,-47Z" fill="#98b4e2" stroke="#98b4e2" stroke-width="1.51"/><path d="M139,225L269,295L277,136Z" fill="#6898d6" stroke="#6898d6" stroke-width="1.51"/><path d="M272,418L179,560L281,561Z" fill="#a393ad" stroke="#a393ad" stroke-width="1.51"/><path d="M142,1020L182,1095L288,960Z" fill="#d4b1a9" stroke="#d4b1a9" stroke-width="1.51"/><path d="M87,648L191,799L311,652Z" fill="#cb9992" stroke="#cb9992" stroke-width="1.51"/><path d="M179,560L87,648L311,652Z" fill="#be989e" stroke="#be989e" stroke-width="1.51"/><path d="M281,561L179,560L311,652Z" fill="#b193a1" stroke="#b193a1" stroke-width="1.51"/><path d="M182,1095L163,1278L269,1125Z" fill="#cfc1c6" stroke="#cfc1c6" stroke-width="1.51"/><path d="M269,295L186,396L272,418Z" fill="#8092c3" stroke="#8092c3" stroke-width="1.51"/><path d="M186,396L179,560L272,418Z" fill="#9b95b6" stroke="#9b95b6" stroke-width="1.51"/><path d="M285,834L191,799L288,960Z" fill="#d59a88" stroke="#d59a88" stroke-width="1.51"/><path d="M191,799L142,1020L288,960Z" fill="#d8a596" stroke="#d8a596" stroke-width="1.51"/><path d="M269,1125L163,1278L293,1240Z" fill="#cac3cf" stroke="#cac3cf" stroke-width="1.51"/><path d="M172,87L139,225L277,136Z" fill="#7ba3da" stroke="#7ba3da" stroke-width="1.51"/><path d="M139,225L186,396L269,295Z" fill="#7295ce" stroke="#7295ce" stroke-width="1.51"/><path d="M-32,1256L-115,1318L163,1278Z" fill="#e3e0e5" stroke="#e3e0e5" stroke-width="1.51"/><path d="M26,1163L163,1278L182,1095Z" fill="#d8c9cb" stroke="#d8c9cb" stroke-width="1.51"/><path d="M139,225L8,287L186,396Z" fill="#7d9cd1" stroke="#7d9cd1" stroke-width="1.51"/><path d="M17,502L179,560L186,396Z" fill="#aa9db5" stroke="#aa9db5" stroke-width="1.51"/><path d="M18,863L142,1020L191,799Z" fill="#e2a992" stroke="#e2a992" stroke-width="1.51"/><path d="M87,648L18,863L191,799Z" fill="#e1a18a" stroke="#e1a18a" stroke-width="1.51"/><path d="M8,287L17,502L186,396Z" fill="#9ca0c5" stroke="#9ca0c5" stroke-width="1.51"/><path d="M142,1020L26,1163L182,1095Z" fill="#dbc0ba" stroke="#dbc0ba" stroke-width="1.51"/><path d="M-54,137L139,225L172,87Z" fill="#8aacde" stroke="#8aacde" stroke-width="1.51"/><path d="M17,502L87,648L179,560Z" fill="#bfa0a9" stroke="#bfa0a9" stroke-width="1.51"/><path d="M125,-61L32,-86L172,87Z" fill="#a7bfe6" stroke="#a7bfe6" stroke-width="1.51"/><path d="M32,-86L-54,137L172,87Z" fill="#a2bce5" stroke="#a2bce5" stroke-width="1.51"/><path d="M-54,743L18,863L87,648Z" fill="#e6a88f" stroke="#e6a88f" stroke-width="1.51"/><path d="M26,1163L-32,1256L163,1278Z" fill="#ded6d9" stroke="#ded6d9" stroke-width="1.51"/><path d="M8,287L-63,422L17,502Z" fill="#a8a7c6" stroke="#a8a7c6" stroke-width="1.51"/><path d="M99,-189L32,-86L125,-61Z" fill="#baccec" stroke="#baccec" stroke-width="1.51"/><path d="M-54,137L8,287L139,225Z" fill="#84a9dd" stroke="#84a9dd" stroke-width="1.51"/><path d="M-27,1037L26,1163L142,1020Z" fill="#e3c3b8" stroke="#e3c3b8" stroke-width="1.51"/><path d="M18,863L-27,1037L142,1020Z" fill="#e7b8a4" stroke="#e7b8a4" stroke-width="1.51"/><path d="M-111,-53L-54,137L32,-86Z" fill="#b6c9eb" stroke="#b6c9eb" stroke-width="1.51"/><path d="M38,-231L32,-86L99,-189Z" fill="#c8d6f0" stroke="#c8d6f0" stroke-width="1.51"/><path d="M17,502L-144,577L87,648Z" fill="#cca9ac" stroke="#cca9ac" stroke-width="1.51"/><path d="M-144,577L-54,743L87,648Z" fill="#dcab9f" stroke="#dcab9f" stroke-width="1.51"/><path d="M-135,1020L-27,1037L18,863Z" fill="#f1c0a6" stroke="#f1c0a6" stroke-width="1.51"/><path d="M-115,-202L-111,-53L32,-86Z" fill="#cdd9f1" stroke="#cdd9f1" stroke-width="1.51"/><path d="M-115,-202L32,-86L38,-231Z" fill="#d1dcf2" stroke="#d1dcf2" stroke-width="1.51"/><path d="M-54,137L-130,244L8,287Z" fill="#8fafdf" stroke="#8fafdf" stroke-width="1.51"/><path d="M-111,-53L-170,39L-54,137Z" fill="#b7caea" stroke="#b7caea" stroke-width="1.51"/><path d="M-27,1037L-214,1177L26,1163Z" fill="#efd4c7" stroke="#efd4c7" stroke-width="1.51"/><path d="M-214,1177L-32,1256L26,1163Z" fill="#eedcd6" stroke="#eedcd6" stroke-width="1.51"/><path d="M-135,1020L-214,1177L-27,1037Z" fill="#f6d3bf" stroke="#f6d3bf" stroke-width="1.51"/><path d="M-54,743L-173,795L18,863Z" fill="#f8b089" stroke="#f8b089" stroke-width="1.51"/><path d="M-173,795L-135,1020L18,863Z" fill="#f9bb97" stroke="#f9bb97" stroke-width="1.51"/><path d="M-63,422L-144,577L17,502Z" fill="#c2adb9" stroke="#c2adb9" stroke-width="1.51"/><path d="M-130,244L-63,422L8,287Z" fill="#97aad5" stroke="#97aad5" stroke-width="1.51"/><path d="M-130,244L-187,359L-63,422Z" fill="#a5b1d3" stroke="#a5b1d3" stroke-width="1.51"/><path d="M-144,577L-219,699L-54,743Z" fill="#eab5a0" stroke="#eab5a0" stroke-width="1.51"/><path d="M-214,1177L-115,1318L-32,1256Z" fill="#f2e7e2" stroke="#f2e7e2" stroke-width="1.51"/><path d="M-187,359L-144,577L-63,422Z" fill="#c0b2c3" stroke="#c0b2c3" stroke-width="1.51"/><path d="M-170,39L-130,244L-54,137Z" fill="#a6bee6" stroke="#a6bee6" stroke-width="1.51"/><path d="M-219,699L-173,795L-54,743Z" fill="#f7b694" stroke="#f7b694" stroke-width="1.51"/><path d="M-115,-202L-170,39L-111,-53Z" fill="#cddaf1" stroke="#cddaf1" stroke-width="1.51"/><path d="M-173,795L-214,1177L-135,1020Z" fill="#feceaf" stroke="#feceaf" stroke-width="1.51"/><path d="M-170,39L-187,359L-130,244Z" fill="#9eb9e3" stroke="#9eb9e3" stroke-width="1.51"/><path d="M-187,359L-219,699L-144,577Z" fill="#d8b7b6" stroke="#d8b7b6" stroke-width="1.51"/><path d="M-219,699L-214,1177L-173,795Z" fill="#ffc39a" stroke="#ffc39a" stroke-width="1.51"/><path d="M-219,699L-187,359L-170,39Z" fill="#b3b6d2" stroke="#b3b6d2" stroke-width="1.51"/></svg>